<svg id="visual" viewBox="0 0 900 600" width="900" height="600" xmlns="http://www.w3.org/2000/svg" xmlns:xlink="http://www.w3.org/1999/xlink" version="1.1"><rect x="0" y="0" width="900" height="600" fill="#000000"></rect><defs><linearGradient id="grad1_0" x1="33.3%" y1="100%" x2="100%" y2="0%"><stop offset="20%" stop-color="#f5730a" stop-opacity="1"></stop><stop offset="80%" stop-color="#f5730a" stop-opacity="1"></stop></linearGradient></defs><defs><linearGradient id="grad1_1" x1="33.3%" y1="100%" x2="100%" y2="0%"><stop offset="20%" stop-color="#f5730a" stop-opacity="1"></stop><stop offset="80%" stop-color="#c24a00" stop-opacity="1"></stop></linearGradient></defs><defs><linearGradient id="grad1_2" x1="33.3%" y1="100%" x2="100%" y2="0%"><stop offset="20%" stop-color="#921e00" stop-opacity="1"></stop><stop offset="80%" stop-color="#c24a00" stop-opacity="1"></stop></linearGradient></defs><defs><linearGradient id="grad1_3" x1="33.3%" y1="100%" x2="100%" y2="0%"><stop offset="20%" stop-color="#921e00" stop-opacity="1"></stop><stop offset="80%" stop-color="#660000" stop-opacity="1"></stop></linearGradient></defs><defs><linearGradient id="grad1_4" x1="33.3%" y1="100%" x2="100%" y2="0%"><stop offset="20%" stop-color="#000000" stop-opacity="1"></stop><stop offset="80%" stop-color="#660000" stop-opacity="1"></stop></linearGradient></defs><defs><linearGradient id="grad2_0" x1="0%" y1="100%" x2="66.7%" y2="0%"><stop offset="20%" stop-color="#f5730a" stop-opacity="1"></stop><stop offset="80%" stop-color="#f5730a" stop-opacity="1"></stop></linearGradient></defs><defs><linearGradient id="grad2_1" x1="0%" y1="100%" x2="66.7%" y2="0%"><stop offset="20%" stop-color="#c24a00" stop-opacity="1"></stop><stop offset="80%" stop-color="#f5730a" stop-opacity="1"></stop></linearGradient></defs><defs><linearGradient id="grad2_2" x1="0%" y1="100%" x2="66.7%" y2="0%"><stop offset="20%" stop-color="#c24a00" stop-opacity="1"></stop><stop offset="80%" stop-color="#921e00" stop-opacity="1"></stop></linearGradient></defs><defs><linearGradient id="grad2_3" x1="0%" y1="100%" x2="66.7%" y2="0%"><stop offset="20%" stop-color="#660000" stop-opacity="1"></stop><stop offset="80%" stop-color="#921e00" stop-opacity="1"></stop></linearGradient></defs><defs><linearGradient id="grad2_4" x1="0%" y1="100%" x2="66.7%" y2="0%"><stop offset="20%" stop-color="#660000" stop-opacity="1"></stop><stop offset="80%" stop-color="#000000" stop-opacity="1"></stop></linearGradient></defs><g transform="translate(900, 600)"><path d="M-486.7 0C-448.9 -53.8 -411.1 -107.6 -384.3 -159.2C-357.5 -210.8 -341.8 -260.2 -312.5 -312.5C-283.3 -364.9 -240.6 -420.2 -186.3 -449.7C-131.9 -479.2 -66 -483 0 -486.7L0 0Z" fill="#530000"></path><path d="M-389.4 0C-359.1 -43 -328.9 -86.1 -307.5 -127.4C-286 -168.6 -273.4 -208.2 -250 -250C-226.6 -291.9 -192.5 -336.1 -149 -359.8C-105.5 -383.4 -52.8 -386.4 0 -389.4L0 0Z" fill="#7b0000"></path><path d="M-292 0C-269.4 -32.3 -246.7 -64.6 -230.6 -95.5C-214.5 -126.5 -205.1 -156.1 -187.5 -187.5C-170 -218.9 -144.4 -252.1 -111.8 -269.8C-79.2 -287.5 -39.6 -289.8 0 -292L0 0Z" fill="#a93500"></path><path d="M-194.7 0C-179.6 -21.5 -164.4 -43 -153.7 -63.7C-143 -84.3 -136.7 -104.1 -125 -125C-113.3 -146 -96.2 -168.1 -74.5 -179.9C-52.8 -191.7 -26.4 -193.2 0 -194.7L0 0Z" fill="#db5e00"></path><path d="M-97.3 0C-89.8 -10.8 -82.2 -21.5 -76.9 -31.8C-71.5 -42.2 -68.4 -52 -62.5 -62.5C-56.7 -73 -48.1 -84 -37.3 -89.9C-26.4 -95.8 -13.2 -96.6 0 -97.3L0 0Z" fill="#f5730a"></path></g><g transform="translate(0, 0)"><path d="M486.7 0C465.6 57.8 444.4 115.7 424.1 175.7C403.7 235.6 384.1 297.7 344.2 344.2C304.3 390.6 244.1 421.4 183.3 442.5C122.6 463.7 61.3 475.2 0 486.7L0 0Z" fill="#530000"></path><path d="M389.4 0C372.5 46.3 355.5 92.5 339.2 140.5C322.9 188.5 307.3 238.2 275.3 275.3C243.4 312.5 195.2 337.1 146.6 354C98 370.9 49 380.2 0 389.4L0 0Z" fill="#7b0000"></path><path d="M292 0C279.4 34.7 266.7 69.4 254.4 105.4C242.2 141.4 230.5 178.6 206.5 206.5C182.6 234.4 146.4 252.8 110 265.5C73.5 278.2 36.8 285.1 0 292L0 0Z" fill="#a93500"></path><path d="M194.7 0C186.2 23.1 177.8 46.3 169.6 70.3C161.5 94.3 153.6 119.1 137.7 137.7C121.7 156.2 97.6 168.6 73.3 177C49 185.5 24.5 190.1 0 194.7L0 0Z" fill="#db5e00"></path><path d="M97.3 0C93.1 11.6 88.9 23.1 84.8 35.1C80.7 47.1 76.8 59.5 68.8 68.8C60.9 78.1 48.8 84.3 36.7 88.5C24.5 92.7 12.3 95 0 97.3L0 0Z" fill="#f5730a"></path></g></svg>