<svg id="visual" viewBox="0 0 900 600" width="900" height="600" xmlns="http://www.w3.org/2000/svg" xmlns:xlink="http://www.w3.org/1999/xlink" version="1.1"><rect x="0" y="0" width="900" height="600" fill="#000000"></rect><defs><linearGradient id="grad1_0" x1="33.3%" y1="0%" x2="100%" y2="100%"><stop offset="20%" stop-color="#f5730a" stop-opacity="1"></stop><stop offset="80%" stop-color="#f5730a" stop-opacity="1"></stop></linearGradient></defs><defs><linearGradient id="grad1_1" x1="33.3%" y1="0%" x2="100%" y2="100%"><stop offset="20%" stop-color="#f5730a" stop-opacity="1"></stop><stop offset="80%" stop-color="#c24a00" stop-opacity="1"></stop></linearGradient></defs><defs><linearGradient id="grad1_2" x1="33.3%" y1="0%" x2="100%" y2="100%"><stop offset="20%" stop-color="#921e00" stop-opacity="1"></stop><stop offset="80%" stop-color="#c24a00" stop-opacity="1"></stop></linearGradient></defs><defs><linearGradient id="grad1_3" x1="33.3%" y1="0%" x2="100%" y2="100%"><stop offset="20%" stop-color="#921e00" stop-opacity="1"></stop><stop offset="80%" stop-color="#660000" stop-opacity="1"></stop></linearGradient></defs><defs><linearGradient id="grad1_4" x1="33.3%" y1="0%" x2="100%" y2="100%"><stop offset="20%" stop-color="#000000" stop-opacity="1"></stop><stop offset="80%" stop-color="#660000" stop-opacity="1"></stop></linearGradient></defs><defs><linearGradient id="grad2_0" x1="0%" y1="0%" x2="66.7%" y2="100%"><stop offset="20%" stop-color="#f5730a" stop-opacity="1"></stop><stop offset="80%" stop-color="#f5730a" stop-opacity="1"></stop></linearGradient></defs><defs><linearGradient id="grad2_1" x1="0%" y1="0%" x2="66.7%" y2="100%"><stop offset="20%" stop-color="#c24a00" stop-opacity="1"></stop><stop offset="80%" stop-color="#f5730a" stop-opacity="1"></stop></linearGradient></defs><defs><linearGradient id="grad2_2" x1="0%" y1="0%" x2="66.7%" y2="100%"><stop offset="20%" stop-color="#c24a00" stop-opacity="1"></stop><stop offset="80%" stop-color="#921e00" stop-opacity="1"></stop></linearGradient></defs><defs><linearGradient id="grad2_3" x1="0%" y1="0%" x2="66.7%" y2="100%"><stop offset="20%" stop-color="#660000" stop-opacity="1"></stop><stop offset="80%" stop-color="#921e00" stop-opacity="1"></stop></linearGradient></defs><defs><linearGradient id="grad2_4" x1="0%" y1="0%" x2="66.7%" y2="100%"><stop offset="20%" stop-color="#660000" stop-opacity="1"></stop><stop offset="80%" stop-color="#000000" stop-opacity="1"></stop></linearGradient></defs><g transform="translate(900, 0)"><path d="M0 486.7C-52.9 451.5 -105.8 416.3 -163.8 395.4C-221.7 374.5 -284.7 367.9 -335.9 335.9C-387.1 303.9 -426.5 246.5 -449.7 186.3C-472.9 126.1 -479.8 63 -486.7 0L0 0Z" fill="#530000"></path><path d="M0 389.4C-42.3 361.2 -84.7 333.1 -131 316.3C-177.4 299.6 -227.7 294.3 -268.7 268.7C-309.7 243.1 -341.2 197.2 -359.8 149C-378.3 100.8 -383.9 50.4 -389.4 0L0 0Z" fill="#7b0000"></path><path d="M0 292C-31.8 270.9 -63.5 249.8 -98.3 237.3C-133 224.7 -170.8 220.7 -201.5 201.5C-232.2 182.3 -255.9 147.9 -269.8 111.8C-283.7 75.6 -287.9 37.8 -292 0L0 0Z" fill="#a93500"></path><path d="M0 194.7C-21.2 180.6 -42.3 166.5 -65.5 158.2C-88.7 149.8 -113.9 147.2 -134.4 134.4C-154.8 121.5 -170.6 98.6 -179.9 74.5C-189.2 50.4 -191.9 25.2 -194.7 0L0 0Z" fill="#db5e00"></path><path d="M0 97.3C-10.6 90.3 -21.2 83.3 -32.8 79.1C-44.3 74.9 -56.9 73.6 -67.2 67.2C-77.4 60.8 -85.3 49.3 -89.9 37.3C-94.6 25.2 -96 12.6 -97.3 0L0 0Z" fill="#f5730a"></path></g><g transform="translate(0, 600)"><path d="M0 -486.7C54.1 -459.5 108.2 -432.3 171.4 -413.9C234.7 -395.5 307.1 -385.9 344.2 -344.2C381.3 -302.5 383.1 -228.8 401 -166.1C418.8 -103.4 452.8 -51.7 486.7 0L0 0Z" fill="#530000"></path><path d="M0 -389.4C43.3 -367.6 86.6 -345.9 137.2 -331.1C187.8 -316.4 245.7 -308.7 275.3 -275.3C305 -242 306.5 -183 320.8 -132.9C335.1 -82.7 362.2 -41.4 389.4 0L0 0Z" fill="#7b0000"></path><path d="M0 -292C32.5 -275.7 64.9 -259.4 102.9 -248.3C140.8 -237.3 184.3 -231.5 206.5 -206.5C228.8 -181.5 229.9 -137.3 240.6 -99.7C251.3 -62 271.7 -31 292 0L0 0Z" fill="#a93500"></path><path d="M0 -194.7C21.6 -183.8 43.3 -172.9 68.6 -165.6C93.9 -158.2 122.8 -154.3 137.7 -137.7C152.5 -121 153.2 -91.5 160.4 -66.4C167.5 -41.4 181.1 -20.7 194.7 0L0 0Z" fill="#db5e00"></path><path d="M0 -97.3C10.8 -91.9 21.6 -86.5 34.3 -82.8C46.9 -79.1 61.4 -77.2 68.8 -68.8C76.3 -60.5 76.6 -45.8 80.2 -33.2C83.8 -20.7 90.6 -10.3 97.3 0L0 0Z" fill="#f5730a"></path></g></svg>