<svg id="visual" viewBox="0 0 900 600" width="900" height="600" xmlns="http://www.w3.org/2000/svg" xmlns:xlink="http://www.w3.org/1999/xlink" version="1.1"><rect x="0" y="0" width="900" height="600" fill="#000"></rect><path d="M0 251L180 244L360 297L540 271L720 349L900 306L900 601L720 601L540 601L360 601L180 601L0 601Z" fill="#f5730a"></path><path d="M0 353L180 357L360 429L540 390L720 408L900 343L900 601L720 601L540 601L360 601L180 601L0 601Z" fill="#d15308"></path><path d="M0 465L180 495L360 392L540 464L720 413L900 404L900 601L720 601L540 601L360 601L180 601L0 601Z" fill="#ac3505"></path><path d="M0 485L180 544L360 476L540 538L720 551L900 543L900 601L720 601L540 601L360 601L180 601L0 601Z" fill="#871400"></path></svg>