<?xml version="1.0" standalone="no"?>
<!DOCTYPE svg PUBLIC "-//W3C//DTD SVG 20010904//EN"
 "http://www.w3.org/TR/2001/REC-SVG-20010904/DTD/svg10.dtd">
<svg version="1.0" xmlns="http://www.w3.org/2000/svg"
 width="720.000000pt" height="720.000000pt" viewBox="0 0 720.000000 720.000000"
 preserveAspectRatio="xMidYMid meet">
<metadata>
Created by potrace 1.14, written by Peter Selinger 2001-2017
</metadata>
<g transform="translate(0.000000,720.000000) scale(0.100000,-0.100000)"
fill="#000000" stroke="none">
<path d="M0 3600 l0 -3600 3600 0 3600 0 0 3600 0 3600 -3600 0 -3600 0 0
-3600z m2572 2321 c67 -23 116 -54 181 -114 29 -26 84 -63 123 -83 62 -31 86
-37 175 -45 57 -4 151 -9 209 -10 58 -1 93 -4 77 -6 -38 -6 -24 -23 19 -23 21
0 33 -4 29 -10 -3 -5 0 -10 7 -10 9 -1 8 -4 -3 -13 -15 -12 -15 -15 5 -38 12
-14 29 -28 37 -31 9 -4 25 -24 36 -45 14 -26 36 -47 73 -67 29 -16 55 -37 57
-47 3 -11 9 -19 14 -19 5 0 9 -8 9 -19 0 -18 96 -113 125 -125 17 -6 21 -36 5
-36 -15 0 -12 -20 3 -20 16 -1 62 -36 63 -49 1 -6 2 -15 3 -21 2 -20 21 -9 21
13 0 19 3 18 21 -12 11 -18 29 -35 40 -38 23 -6 25 -19 3 -27 -16 -6 -12 -20
7 -22 5 -1 12 -2 17 -3 15 -2 61 -48 55 -54 -3 -4 -12 -2 -20 5 -23 19 -26 1
-2 -23 19 -19 23 -20 31 -5 15 27 41 16 53 -22 6 -21 5 -23 -13 -13 -11 6 -27
9 -34 6 -8 -3 -32 6 -53 21 -51 34 -229 124 -247 124 -8 0 -18 4 -23 9 -15 14
-190 59 -284 72 -102 14 -310 6 -391 -16 -30 -8 -67 -15 -82 -15 -24 0 -186
-57 -198 -70 -3 -3 -31 -18 -63 -35 -132 -69 -292 -216 -379 -348 -49 -75
-128 -225 -143 -271 -5 -18 -7 -17 -21 9 -14 28 -49 63 -91 92 -13 8 -23 22
-23 29 0 8 -9 14 -20 14 -11 0 -20 4 -20 9 0 5 -9 11 -21 14 -13 4 -18 10 -13
18 4 7 3 10 -3 6 -6 -4 -22 11 -37 33 -14 22 -31 40 -36 40 -6 0 -10 7 -10 15
0 17 -16 20 -25 5 -14 -23 -32 -1 -41 50 -2 8 29 78 67 155 66 131 71 147 84
246 12 101 9 199 -10 299 -19 102 46 278 138 370 56 58 190 137 274 164 59 19
169 13 245 -13z m1242 -1178 c28 -21 71 -57 96 -80 44 -42 44 -43 18 -43 -41
0 -79 -18 -85 -40 -3 -11 -9 -20 -14 -20 -13 0 -11 -57 2 -83 27 -53 100 -74
143 -42 21 16 46 60 46 84 0 12 5 10 20 -9 29 -37 90 -168 90 -192 0 -12 -10
-56 -22 -97 -19 -64 -23 -100 -22 -231 l0 -155 42 -105 c61 -152 121 -233 237
-320 47 -36 183 -110 202 -110 4 0 26 -9 47 -21 50 -27 264 -38 371 -20 69 12
201 55 220 72 5 5 16 9 25 9 9 0 25 9 35 20 19 21 45 27 45 10 0 -5 5 -10 10
-10 6 0 10 7 10 15 0 15 29 22 31 8 9 -83 30 -123 63 -123 9 0 16 -8 16 -20 0
-11 3 -20 8 -20 4 0 12 -12 19 -26 10 -21 9 -26 -5 -31 -9 -4 -19 -9 -22 -12
-3 -3 -25 -17 -50 -30 -127 -66 -202 -133 -244 -218 -16 -32 -39 -76 -50 -98
-47 -93 -153 -155 -268 -155 -56 0 -134 29 -194 72 -48 35 -118 135 -129 185
-11 54 -75 102 -265 199 l-75 38 -165 1 c-153 1 -169 2 -215 25 -72 35 -122
85 -158 159 -29 59 -32 75 -32 151 1 97 19 142 86 215 50 54 58 82 66 222 11
193 -11 295 -90 433 -59 103 -69 218 -27 306 23 47 96 124 118 124 8 0 37 -17
66 -37z m471 -149 c8 -20 12 -41 9 -46 -6 -9 -33 53 -34 75 0 17 11 4 25 -29z
m55 -86 c0 -10 7 -33 16 -49 11 -22 19 -28 27 -20 9 7 16 2 25 -18 14 -31 64
-91 77 -91 14 0 55 -42 55 -57 0 -7 5 -13 10 -13 6 0 10 -6 10 -14 0 -8 3 -16
8 -18 4 -1 20 -20 35 -41 16 -20 32 -35 36 -32 7 4 64 -18 80 -31 2 -2 -9 -14
-24 -28 -17 -16 -22 -26 -14 -26 11 0 14 -17 14 -69 0 -74 13 -99 65 -126 36
-19 120 -30 120 -16 0 6 12 11 26 11 19 0 25 -4 20 -15 -3 -9 3 -20 14 -27 11
-7 20 -21 20 -30 0 -10 7 -18 15 -18 9 0 20 -12 26 -27 6 -16 22 -38 36 -50
14 -13 21 -23 15 -23 -7 0 -12 -10 -11 -22 0 -13 3 -17 6 -10 6 14 53 17 53 2
0 -15 0 -17 10 -52 9 -28 6 -34 -21 -59 -17 -15 -62 -39 -100 -53 -101 -37
-213 -36 -330 3 -105 35 -163 64 -203 102 -17 16 -34 29 -38 29 -14 0 -80 114
-101 173 -38 111 -28 324 19 402 21 34 26 101 13 162 -7 32 -16 62 -21 68 -4
5 -8 18 -8 30 0 12 -6 27 -12 34 -10 10 -10 15 -2 18 7 2 9 14 6 26 -5 20 -4
20 11 8 9 -7 17 -22 17 -33z m-2400 -28 c0 -5 -4 -10 -10 -10 -5 0 -10 5 -10
10 0 6 5 10 10 10 6 0 10 -4 10 -10z m64 -36 c20 -8 20 -21 2 -40 -19 -18 -21
-18 -23 6 -1 11 4 20 10 20 7 0 6 4 -3 10 -17 11 -10 13 14 4z m60 -57 c8 -7
21 -28 30 -45 9 -18 21 -30 25 -28 4 3 6 -6 3 -19 -2 -14 -8 -27 -12 -30 -4
-2 -5 7 -2 20 3 20 1 24 -12 19 -12 -4 -16 0 -16 15 0 15 -6 21 -24 21 -19 0
-25 6 -28 30 -5 33 13 41 36 17z m3114 -768 c-2 -6 -8 -10 -13 -10 -5 0 -11 4
-13 10 -2 6 4 11 13 11 9 0 15 -5 13 -11z m228 -169 c0 -11 -4 -20 -8 -20 -4
0 -8 9 -8 20 0 11 4 20 8 20 4 0 8 -9 8 -20z m1 -82 c-3 -7 -5 -2 -5 12 0 14
2 19 5 13 2 -7 2 -19 0 -25z m30 -50 c-3 -8 -6 -5 -6 6 -1 11 2 17 5 13 3 -3
4 -12 1 -19z m46 -52 c20 -19 45 -37 56 -41 23 -7 28 -24 9 -26 -7 -1 3 -5 22
-9 l35 -7 -41 -2 c-34 -1 -43 3 -47 19 -3 12 -14 20 -26 20 -14 0 -23 8 -27
25 -3 14 -10 25 -15 25 -5 0 -9 7 -9 15 0 21 4 19 43 -19z m-1373 -304 c104
-40 230 -142 230 -186 1 -61 94 -180 189 -242 l43 -28 -6 -50 c-13 -112 -115
-265 -214 -324 -107 -62 -254 -84 -295 -43 l-22 22 23 5 c24 7 30 24 8 24 -8
0 -30 16 -50 35 -20 19 -40 35 -44 35 -4 0 -7 3 -7 8 0 4 -34 40 -75 81 -41
41 -79 84 -85 95 -5 11 -23 27 -40 36 -16 10 -29 25 -29 34 1 9 -11 25 -27 37
-16 11 -29 29 -29 40 0 10 -5 19 -10 19 -21 0 -70 44 -70 62 0 10 -6 18 -12
18 -7 0 -21 12 -31 26 -16 21 -18 35 -12 87 7 56 6 60 -9 48 -9 -7 -16 -20
-16 -27 0 -8 -4 -14 -9 -14 -14 0 -33 28 -27 39 4 5 -6 11 -21 13 l-28 3 37
18 c20 10 40 22 43 27 3 6 18 10 32 10 14 0 62 23 108 50 46 28 89 50 96 50 8
0 34 -7 59 -16 50 -17 126 -13 202 10 24 8 45 14 48 15 3 1 25 -7 50 -17z
m-677 -129 c-7 -2 -19 -2 -25 0 -7 3 -2 5 12 5 14 0 19 -2 13 -5z m664 -779
c-3 -3 -12 -4 -19 -1 -8 3 -5 6 6 6 11 1 17 -2 13 -5z m-1008 -321 c30 -29 56
-53 58 -53 2 0 34 30 71 67 l67 68 3 -88 c1 -48 1 -126 0 -174 l-3 -87 -20 29
c-14 22 -21 52 -23 108 -2 42 -7 77 -11 77 -4 0 -22 -16 -41 -35 -19 -19 -39
-35 -45 -35 -6 0 -26 16 -45 35 -19 19 -37 35 -42 35 -4 0 -8 -33 -10 -72 -3
-66 -5 -73 -25 -76 -22 -3 -22 -1 -25 133 -2 75 -1 139 1 141 6 5 25 -11 90
-73z m-849 33 c0 -29 -25 -35 -128 -30 l-73 4 3 -77 3 -77 56 3 c32 1 60 -2
63 -8 13 -20 -71 -52 -127 -49 l-52 3 -3 105 c-2 95 -1 108 18 128 19 20 30
22 130 22 109 0 110 0 110 -24z m491 2 c16 -17 19 -37 19 -107 -1 -123 -9
-131 -131 -131 -125 0 -129 4 -129 128 0 129 3 132 128 132 84 0 97 -2 113
-22z m1051 5 c13 -11 18 -30 18 -64 0 -66 -20 -79 -122 -79 l-78 0 0 -80 c0
-45 -4 -80 -10 -80 -5 0 -19 20 -30 45 -16 34 -20 62 -18 108 l3 62 103 3 c94
2 102 4 102 22 0 11 -3 20 -7 20 -5 1 -44 2 -88 4 -44 2 -88 4 -97 5 -18 1
-25 31 -11 44 3 4 54 7 111 7 84 0 109 -3 124 -17z m510 0 c15 -13 18 -32 18
-111 0 -128 -3 -132 -127 -132 -86 0 -97 2 -114 23 -25 30 -27 175 -3 212 15
24 21 25 112 25 75 0 99 -4 114 -17z m525 1 c10 -28 -15 -38 -102 -39 -84 -2
-120 -14 -99 -35 5 -5 52 -10 104 -12 l95 -3 3 -55 c2 -45 -1 -60 -18 -78 -18
-19 -31 -22 -96 -22 -93 0 -95 16 -6 45 44 14 62 25 62 38 0 15 -11 17 -100
17 l-100 0 0 62 c0 92 8 98 142 98 89 0 110 -3 115 -16z m303 -114 l0 -130
-25 0 -25 0 0 130 0 130 25 0 25 0 0 -130z m510 105 c0 -26 -2 -27 -60 -29
l-35 -1 -5 -135 -5 -134 -20 29 c-16 24 -21 52 -25 135 l-5 105 -45 0 c-42 0
-45 2 -48 28 l-3 27 125 0 126 0 0 -25z m-2470 -505 c-9 -17 -9 -29 0 -50 6
-15 10 -39 8 -52 -3 -20 -6 -18 -26 20 -21 38 -26 42 -62 42 -32 0 -39 -4 -42
-22 -2 -13 -10 -23 -18 -23 -15 0 -16 11 -11 113 1 25 25 26 27 1 1 -8 2 -20
3 -26 1 -8 16 -13 41 -13 36 0 41 3 62 43 22 41 23 41 26 15 2 -15 -2 -37 -8
-48z m-933 -10 c3 -57 -7 -87 -26 -76 -12 8 -15 118 -4 130 16 15 26 -3 30
-54z m161 -5 c-4 -79 -22 -91 -26 -16 -3 59 2 81 18 81 7 0 10 -23 8 -65z
m292 56 c0 -5 -12 -11 -27 -13 -27 -3 -28 -5 -33 -78 -6 -88 -22 -80 -30 15
-5 57 -7 60 -33 63 -15 2 -25 8 -22 13 8 12 145 12 145 0z m662 -18 c3 -25 7
-28 43 -28 36 0 40 3 43 28 2 16 9 27 18 27 12 0 14 -13 12 -67 -2 -42 -8 -68
-15 -71 -9 -2 -13 7 -13 28 0 30 -1 31 -42 28 -34 -2 -43 -7 -46 -23 -7 -47
-13 -65 -22 -65 -11 0 -14 153 -3 163 13 14 22 6 25 -20z m338 17 c0 -5 -12
-10 -26 -10 -19 0 -25 -5 -22 -17 2 -14 15 -19 56 -21 l52 -3 0 -40 c0 -46
-23 -51 -28 -6 -3 24 -8 27 -41 27 -37 0 -39 -2 -45 -39 -3 -22 -11 -43 -16
-46 -11 -7 -14 147 -3 158 10 11 73 8 73 -3z m336 -55 c1 -33 3 -64 5 -70 2
-5 0 -11 -4 -13 -5 -2 -17 12 -27 30 -13 25 -25 34 -48 36 -27 3 -31 0 -34
-25 -4 -39 -22 -31 -26 11 l-3 35 53 3 c41 2 54 7 56 21 3 12 -3 17 -20 17
-13 0 -30 5 -38 10 -11 8 -1 10 35 8 l50 -3 1 -60z m229 56 c3 -5 -7 -11 -22
-13 -17 -2 -28 -9 -28 -18 0 -11 14 -16 58 -18 l58 -3 -3 -36 c-4 -44 -25 -56
-30 -16 -3 25 -7 28 -43 28 -32 0 -40 -4 -43 -20 -7 -47 -13 -65 -22 -65 -15
0 -13 143 2 158 14 14 64 16 73 3z m290 -1 c-11 -5 -28 -11 -37 -14 -13 -4
-18 -16 -18 -46 l0 -41 43 3 c42 3 55 20 20 26 -41 8 -35 22 11 22 l47 0 -3
-37 -3 -38 -58 -3 c-35 -2 -64 2 -73 9 -14 12 -20 109 -7 122 3 4 27 7 52 6
35 0 41 -2 26 -9z m340 -30 l0 -35 -52 -3 -53 -3 0 -45 c0 -44 -12 -58 -24
-28 -3 9 -6 33 -6 54 l0 39 53 3 c38 2 52 7 52 18 0 11 -14 16 -52 18 -29 2
-53 8 -53 13 0 6 27 9 68 7 l67 -3 0 -35z m175 -15 l0 -55 40 0 40 0 0 55 c0
43 3 55 15 55 13 0 15 -12 13 -67 l-3 -68 -65 0 -65 0 -3 68 c-2 55 0 67 13
67 12 0 15 -12 15 -55z m391 48 c6 -39 5 -153 -1 -153 -5 0 -17 18 -26 40 -16
36 -22 41 -49 38 -25 -2 -31 -8 -33 -31 -5 -40 -26 -28 -30 16 l-3 36 58 3
c44 2 58 7 58 18 0 8 -11 16 -25 18 -47 7 -45 22 3 22 26 0 48 -3 48 -7z"/>
<path d="M2404 5543 c-12 -2 -36 -17 -55 -32 -31 -26 -33 -32 -34 -90 0 -60 2
-64 37 -97 30 -27 46 -34 78 -34 84 0 130 45 130 127 0 46 -4 58 -32 88 -33
34 -78 48 -124 38z"/>
<path d="M1796 4723 c-6 -14 -5 -15 5 -6 7 7 10 15 7 18 -3 3 -9 -2 -12 -12z"/>
<path d="M3871 3556 c-53 -30 -66 -97 -26 -144 32 -38 65 -46 110 -28 67 28
77 113 20 164 -29 25 -68 28 -104 8z"/>
<path d="M4756 3049 c-60 -71 -8 -165 84 -151 77 11 104 100 48 159 -16 17
-33 23 -64 23 -35 0 -47 -5 -68 -31z"/>
<path d="M4381 4284 c0 -11 3 -14 6 -6 3 7 2 16 -1 19 -3 4 -6 -2 -5 -13z"/>
<path d="M3994 2710 c-12 -5 -34 -24 -48 -43 -21 -28 -26 -45 -26 -95 0 -50 4
-66 25 -90 33 -39 76 -56 130 -50 60 7 93 31 117 85 45 102 -23 204 -134 202
-24 0 -53 -4 -64 -9z"/>
<path d="M2547 1734 c-4 -4 -7 -38 -7 -76 l0 -68 55 -1 c30 -1 63 -2 73 -3 15
-1 17 9 17 73 l0 74 -65 4 c-36 3 -69 1 -73 -3z"/>
<path d="M4116 1732 c-3 -3 -6 -36 -6 -74 l0 -68 65 0 c36 0 68 0 73 0 4 0 7
33 7 73 l0 72 -67 1 c-37 1 -69 -1 -72 -4z"/>
</g>
</svg>
